<svg xmlns:xlink="http://www.w3.org/1999/xlink" xmlns="http://www.w3.org/2000/svg" viewBox="0 0 369.66666666666663 83.33333333333333" preserveAspectRatio="xMidYMid meet" class="" id="bdccgeee" style="overflow: visible;" width="369.66666666666663"  height="83.33333333333333" ><defs id="SvgjsDefs1495"></defs><g id="SvgjsG1496" featurekey="odWo6G-0" transform="matrix(0.2955663282843518,0,0,0.2955663282843518,-2.668279757245948,-2.6682791934979155)" fill="#2563EB"><g xmlns="http://www.w3.org/2000/svg" fill="#2563EB"><path d="M209.1,9.1c-10.2,0.8-19.7,10.2-20.7,20.4c-0.2,1.5-0.2,3,0,4.4c0.7,7.9-2.3,15.7-8,21.3l-1.3,1.2   c-2.7,2.6-8.5,4.3-14.1,5.3c-9.9,1.7-20.1,1.7-30,0c-5.6-1-11.4-2.6-14.1-5.3l-1.2-1.2c-5.7-5.5-8.7-13.4-8-21.3   c0.1-1.5,0.1-2.9,0-4.4c-1-10.2-10.6-19.6-20.8-20.4C76.9,8,65.3,19.6,66.4,33.6c0.9,11,9.7,19.9,20.7,20.8c1.5,0.1,2.9,0.1,4.3,0   c8.1-0.8,16.2,1.6,22,7.4l1.1,1.1c6.3,6.1,9,15,7.6,23.7c-0.4,2.1-0.5,4.3-0.3,6.5c1,13.8,12.3,25.1,26.1,26   c16.5,1.1,30.2-11.9,30.2-28.1c0-1.6-0.2-3.3-0.5-4.8c-1.5-8.6,1.5-17.3,7.8-23.4l1-1c5.8-5.6,13.9-8.2,22-7.4   c1.4,0.2,2.8,0.2,4.3,0c11-0.9,19.8-9.8,20.7-20.8C234.7,19.6,223.1,8,209.1,9.1z" fill="#2563EB"></path><path d="M9.1,90.9c0.8,10.2,10.2,19.7,20.4,20.7c1.5,0.2,3,0.2,4.4,0c7.9-0.7,15.7,2.3,21.3,8l1.2,1.3c2.6,2.7,4.3,8.5,5.3,14.1   c1.7,9.9,1.7,20.1,0,30c-1,5.6-2.6,11.4-5.3,14.1l-1.2,1.2c-5.5,5.7-13.4,8.7-21.3,8c-1.5-0.1-2.9-0.1-4.4,0   c-10.2,1-19.6,10.6-20.4,20.8c-1.1,14,10.5,25.7,24.6,24.5c11-0.9,19.9-9.7,20.8-20.7c0.1-1.5,0.1-2.9,0-4.3   c-0.8-8.1,1.6-16.2,7.4-22l1.1-1.1c6.1-6.3,15-9,23.7-7.6c2.1,0.4,4.3,0.5,6.5,0.3c13.8-1,25.1-12.3,26-26.1   c1.1-16.5-11.9-30.2-28.1-30.2c-1.6,0-3.3,0.2-4.8,0.5c-8.6,1.5-17.3-1.5-23.4-7.8l-1-1c-5.6-5.8-8.2-13.9-7.4-22   c0.2-1.4,0.2-2.8,0-4.3c-1-11-9.9-19.9-20.9-20.7C19.6,65.3,8,76.9,9.1,90.9z" fill="#2563EB"></path><path d="M90.9,290.9c10.2-0.8,19.7-10.2,20.7-20.4c0.2-1.5,0.2-3,0-4.4c-0.7-7.9,2.3-15.7,8-21.3l1.2-1.2c2.7-2.6,8.5-4.3,14.1-5.3   c9.9-1.7,20.1-1.7,30,0c5.6,1,11.4,2.6,14.1,5.3l1.2,1.2c5.7,5.5,8.7,13.4,8,21.3c-0.1,1.5-0.1,2.9,0,4.4   c1,10.2,10.6,19.6,20.7,20.4c14,1.1,25.7-10.5,24.5-24.6c-0.9-11-9.7-19.9-20.7-20.8c-1.5-0.1-2.9-0.1-4.3,0   c-8.1,0.8-16.2-1.6-22-7.4l-1.1-1.1c-6.3-6.1-9-15-7.6-23.7c0.4-2.1,0.5-4.3,0.3-6.5c-1-13.8-12.3-25.1-26.1-26   c-16.5-1.1-30.2,11.9-30.2,28.1c0,1.6,0.2,3.3,0.5,4.8c1.5,8.6-1.5,17.3-7.8,23.4l-1,1c-5.8,5.6-13.9,8.2-22,7.4   c-1.4-0.2-2.8-0.2-4.3,0c-11,0.9-19.8,9.8-20.7,20.8C65.3,280.4,76.9,292,90.9,290.9z" fill="#2563EB"></path><path d="M290.9,209.1c-0.8-10.2-10.2-19.7-20.4-20.7c-1.5-0.2-3-0.2-4.4,0c-7.9,0.7-15.7-2.3-21.3-8l-1.2-1.3   c-2.6-2.7-4.3-8.5-5.3-14.1c-1.7-9.9-1.7-20.1,0-30c1-5.6,2.6-11.4,5.3-14.1l1.2-1.2c5.5-5.7,13.4-8.7,21.3-8   c1.5,0.1,2.9,0.1,4.4,0c10.2-1,19.6-10.6,20.4-20.7c1.1-14-10.5-25.7-24.6-24.5c-11,0.9-19.9,9.7-20.8,20.7c-0.1,1.5-0.1,2.9,0,4.3   c0.8,8.1-1.6,16.2-7.4,22l-1.1,1.1c-6.1,6.3-15,9-23.7,7.6c-2.1-0.4-4.3-0.5-6.5-0.3c-13.8,1-25.1,12.3-26,26.1   c-1.1,16.5,11.9,30.2,28.1,30.2c1.6,0,3.3-0.2,4.8-0.5c8.6-1.5,17.3,1.5,23.4,7.8l1,1c5.6,5.8,8.2,13.9,7.4,22   c-0.2,1.4-0.2,2.8,0,4.3c0.9,11,9.8,19.8,20.8,20.7C280.4,234.7,292,223.1,290.9,209.1z" fill="#2563EB"></path><path d="M89.1,107.2c10,0,18.2-8.1,18.2-18.2c0-10-8.1-18.2-18.2-18.2c-10,0-18.2,8.1-18.2,18.2C70.9,99.1,79,107.2,89.1,107.2z" fill="#2563EB"></path><path d="M89.1,229.1c10,0,18.2-8.1,18.2-18.2c0-10-8.1-18.2-18.2-18.2c-10,0-18.2,8.1-18.2,18.2C70.9,221,79,229.1,89.1,229.1z" fill="#2563EB"></path><path d="M210.9,229.1c10,0,18.2-8.1,18.2-18.2c0-10-8.1-18.2-18.2-18.2c-10,0-18.2,8.1-18.2,18.2   C192.8,221,200.9,229.1,210.9,229.1z" fill="#2563EB"></path><path d="M210.9,107.2c10,0,18.2-8.1,18.2-18.2c0-10-8.1-18.2-18.2-18.2c-10,0-18.2,8.1-18.2,18.2   C192.8,99.1,200.9,107.2,210.9,107.2z" fill="#2563EB"></path><path d="M150,168.2c10,0,18.2-8.1,18.2-18.2s-8.1-18.2-18.2-18.2s-18.2,8.1-18.2,18.2S140,168.2,150,168.2z" fill="#2563EB"></path></g></g><g id="SvgjsG1497" featurekey="VGK2BT-0" transform="matrix(3.2070295684434034,0,0,3.2070295684434034,99.46748664025685,-0.27590536201864424)" fill="#264E86"><path d="M9.322 18.1525 c0.15238 0 0.27102 0.10169 0.27102 0.28814 l0 1.2881 c0 0.15238 -0.11881 0.27102 -0.27119 0.27102 l-8 0 c-0.15254 0 -0.22034 -0.11864 -0.22034 -0.27102 l0 -13.017 c0 -0.15254 0.10169 -0.27119 0.27136 -0.27119 l1.3729 0 c0.15254 0 0.27119 0.11864 0.27119 0.27119 l0 11.441 l6.3051 0 z M12.72862372881356 8.492 c-0.55915 0 -1.0168 -0.44068 -1.0168 -1.0169 c0 -0.55932 0.45763 -1.0169 1.0168 -1.0169 c0.55932 0 1.0169 0.45763 1.0169 1.0169 c0 0.57627 -0.45763 1.0169 -1.0169 1.0169 z M13.389623728813559 11.6102 l-1.3051 0 c-0.16949 0 -0.27119 0.11881 -0.27119 0.27119 l0 7.4407 c0 0.38983 0.23729 0.6778 0.64407 0.6778 l0.94915 0 c0.15254 0 0.25424 -0.10153 0.25424 -0.28797 l0 -7.8305 c0 -0.15238 -0.11864 -0.27119 -0.27119 -0.27119 z M24.08460338983051 19.64424 c0.033898 0.18644 -0.016784 0.35576 -0.16916 0.35576 l-1.1017 0 c-0.44068 0 -0.66102 -0.28797 -0.66102 -0.6778 l0 -4.4068 c0 -1.1186 -0.77966 -1.7627 -1.8983 -1.7627 c-0.9661 0 -1.7797 0.45763 -2.4575 1.1186 l0 5.4578 c0 0.15238 -0.11864 0.27102 -0.27119 0.27102 l-1.3222 0 c-0.15238 0 -0.25407 -0.11864 -0.25407 -0.27102 l0 -7.8476 c0 -0.15238 0.10169 -0.27119 0.25407 -0.27119 l0.91525 0 c0.40678 0 0.66102 0.42373 0.67797 0.72881 l0 0.16949 c0.66102 -0.50864 1.5422 -1.0171 2.6947 -1.0171 c1.7458 0 3.4915 1.1019 3.4915 3.2205 l0 3.7627 c0.016784 0.47458 0.050681 0.83051 0.10153 1.1695 z M32.81355254237288 16.4915 c0.61 0 1.0336 -0.30508 1.0336 -1.0169 c0 -2.0847 -1.6102 -3.9831 -4.0847 -3.9831 c-2.3559 0 -4.2034 1.8644 -4.2034 4.3051 c0 2.5422 1.9322 4.288 4.3051 4.288 c1.5085 0 2.6949 -0.61017 3.4237 -1.5932 c0.10186 -0.13559 0.067963 -0.23729 -0.033568 -0.37288 l-0.32203 -0.42373 c-0.13559 -0.16933 -0.27119 -0.15254 -0.44085 -0.050847 c-0.5422 0.44068 -1.4405 0.81373 -2.4236 0.81373 c-1.3898 0 -2.3729 -0.84746 -2.5593 -1.9661 l5.3051 0 z M27.508352542372883 15.050799999999999 c0.067797 -0.81356 0.83051 -1.8644 2.2203 -1.8644 c1.4068 0 2.1356 1.0678 2.1864 1.8644 l-4.4068 0 z M42.71167627118644 19.62712 c-0.22034 -1.661 -0.2368 -3.2032 -0.16916 -4.8302 c0.084746 -2 -1.0169 -3.2881 -3.0847 -3.2881 c-1.3559 0 -2.7627 0.40678 -3.5932 0.86441 c-0.15254 0.084746 -0.25424 0.23712 -0.18644 0.38966 l0.42373 0.98305 c0.067797 0.16949 0.18644 0.22034 0.40678 0.11864 c1.0847 -0.49153 1.9661 -0.72881 2.8305 -0.72881 c0.91525 0 1.4576 0.35593 1.4237 1.322 c-3.1356 0.5422 -5.5254 1.1015 -5.5254 3.3049 c0 1.4746 1.0678 2.3219 2.7966 2.3219 c1.4408 0 2.1864 -0.44051 2.8983 -0.98288 c0.08458 0.50847 0.23712 0.89831 0.5761 0.89831 l1.0169 0 c0.15238 0 0.20322 -0.18644 0.18627 -0.37288 z M38.356076271186446 18.627299999999998 c-0.69492 0 -1.2373 -0.23729 -1.2373 -0.88136 c0 -1.0339 1.8981 -1.3729 3.6102 -1.7288 c-0.016949 0.55932 -0.016949 1.3051 0 1.7966 c-0.55932 0.42373 -1.5085 0.81356 -2.3729 0.81356 z M56.305067796610174 17.5764 c0.13559 0.11864 0.13576 0.27136 -0.016784 0.42373 c-1.2542 1.3222 -2.9661 2.1186 -5 2.1186 c-3.7627 0 -6.8814 -3.0168 -6.8814 -6.8642 s3.1186 -6.9322 6.8814 -6.9322 c2 0 3.7625 0.79661 5.0337 2.1356 c0.15254 0.15238 0.15254 0.30492 0.016949 0.40661 l-1.0847 0.88119 c-0.13559 0.11881 -0.25424 0.11881 -0.38983 -0.016784 c-0.72881 -0.76271 -1.9831 -1.5593 -3.5085 -1.5593 c-3.0508 0 -5.0339 2.5424 -5.0339 5.0847 c0 2.5593 1.9831 5.0169 5.0339 5.0169 c1.5085 0 2.7288 -0.76271 3.4576 -1.5085 c0.13559 -0.15254 0.27119 -0.16933 0.40678 -0.067797 z M69.91533898305084 6.441000000000001 c0.15254 0 0.27153 0.11881 0.27153 0.25441 l0 13.051 c0 0.13559 -0.10169 0.25424 -0.25424 0.25424 l-0.47458 0 c-0.35593 0 -0.72881 -0.25424 -1.2034 -0.77966 l-7.8644 -9.0339 l0 9.5254 c0 0.15254 -0.11864 0.27119 -0.27119 0.27119 l-1.339 0.016784 c-0.16949 0 -0.28831 -0.11864 -0.28831 -0.28814 l0 -13 c0 -0.15254 0.11881 -0.27119 0.27119 -0.27119 l0.79661 0 c0.15254 0 0.25424 0.067797 0.38983 0.22034 l8.3388 9.7288 l0 -9.6949 c0 -0.13559 0.10169 -0.25424 0.25424 -0.25424 l1.3729 0 z M84.11862711864407 17.5764 c0.13559 0.11864 0.13576 0.27136 -0.016784 0.42373 c-1.2542 1.3222 -2.9661 2.1186 -5 2.1186 c-3.7627 0 -6.8814 -3.0168 -6.8814 -6.8642 s3.1186 -6.9322 6.8814 -6.9322 c2 0 3.7625 0.79661 5.0337 2.1356 c0.15254 0.15238 0.15254 0.30492 0.016949 0.40661 l-1.0847 0.88119 c-0.13559 0.11881 -0.25424 0.11881 -0.38983 -0.016784 c-0.72881 -0.76271 -1.9831 -1.5593 -3.5085 -1.5593 c-3.0508 0 -5.0339 2.5424 -5.0339 5.0847 c0 2.5593 1.9831 5.0169 5.0339 5.0169 c1.5085 0 2.7288 -0.76271 3.4576 -1.5085 c0.13559 -0.15254 0.27119 -0.16933 0.40678 -0.067797 z" fill="#264E86"></path></g></svg>